<svg width="42" height="39" viewBox="0 0 42 39" fill="none" xmlns="http://www.w3.org/2000/svg">
<path d="M3 17.5C1.61929 17.5 0.5 18.6193 0.5 20C0.5 21.3807 1.61929 22.5 3 22.5L3 17.5ZM3 22.5L37 22.5L37 17.5L3 17.5L3 22.5Z" fill="#4C4C4C"/>
<path d="M19.1547 34.5137C18.1783 35.49 18.1783 37.073 19.1547 38.0493C20.131 39.0256 21.7139 39.0256 22.6902 38.0493L19.1547 34.5137ZM22.6902 38.0493L40.7715 19.968L37.236 16.4324L19.1547 34.5137L22.6902 38.0493Z" fill="#4C4C4C"/>
<path d="M23.6246 1.00005C22.6483 0.0237383 21.0653 0.0237383 20.089 1.00005C19.1127 1.97636 19.1127 3.55927 20.089 4.53558L23.6246 1.00005ZM41.7059 19.0814L23.6246 1.00005L20.089 4.53558L38.1703 22.6169L41.7059 19.0814Z" fill="#4C4C4C"/>
</svg>
